#Comment line ignore any data following # character 
#Hierarchical Translation and Rotation (.htr) file 
[Header]	
#Header keywords are followed by a single value 
FileType HTR		#Single word string
DataType HTRS		#Translation followed by rotation and scale data
FileVersion 1		#integer
NumSegments 84		#integer
NumFrames 2		#integer
DataFrameRate 30		#integer, data frame rate in this file
EulerRotationOrder ZYX
CalibrationUnits mm
RotationUnits Degrees
GlobalAxisofGravity Y
BoneLengthAxis Y
ScaleFactor 1.00
[SegmentNames&Hierarchy]
#CHILD	PARENT
MASTER GLOBAL
root MASTER
chest root
L_mid_tent01 root
R_mid_tent01 root
spine01 root
Bip01_Neck chest
L_humerus chest
R_humerus chest
weapon_bone chest
Bip01_Head Bip01_Neck
eye_left_bone Bip01_Head
eye_right_bone Bip01_Head
L_forearm L_humerus
L_front_hand L_forearm
L_weapon_bone L_forearm
L_front_hand01_01 L_front_hand
L_front_hand02_01 L_front_hand
L_front_hand03_01 L_front_hand
L_front_hand01_02 L_front_hand01_01
L_front_hand02_02 L_front_hand02_01
L_front_hand03_02 L_front_hand03_01
R_forearm R_humerus
R_front_hand R_forearm
R_weapon_bone R_forearm
R_front_hand01_01 R_front_hand
R_front_hand02_01 R_front_hand
R_front_hand03_01 R_front_hand
R_front_hand01_02 R_front_hand01_01
R_front_hand02_02 R_front_hand02_01
R_front_hand03_02 R_front_hand03_01
null_rope01_connect L_mid_tent01
Rope1_Seg01 null_rope01_connect
Rope1_Seg02 Rope1_Seg01
Rope1_Seg03 Rope1_Seg02
Rope1_Seg04 Rope1_Seg03
Rope1_Seg05 Rope1_Seg04
Rope1_Seg06 Rope1_Seg05
Rope1_Seg07 Rope1_Seg06
Rope1_Seg09 Rope1_Seg07
L_mid_hand01 Rope1_Seg09
L_mid_hand02 Rope1_Seg09
L_mid_hand03 Rope1_Seg09
null_rope02_connect R_mid_tent01
Rope2_Seg01 null_rope02_connect
Rope2_Seg02 Rope2_Seg01
Rope2_Seg03 Rope2_Seg02
Rope2_Seg04 Rope2_Seg03
Rope2_Seg05 Rope2_Seg04
Rope2_Seg06 Rope2_Seg05
Rope2_Seg07 Rope2_Seg06
Rope2_Seg09 Rope2_Seg07
R_mid_hand01 Rope2_Seg09
R_mid_hand02 Rope2_Seg09
R_mid_hand03 Rope2_Seg09
spine02 spine01
spine03 spine02
pelvis spine03
null_rope03_connect pelvis
null_rope04_connect pelvis
Rope3_Seg01 null_rope03_connect
Rope3_Seg02 Rope3_Seg01
Rope3_Seg03 Rope3_Seg02
Rope3_Seg04 Rope3_Seg03
Rope3_Seg05 Rope3_Seg04
Rope3_Seg06 Rope3_Seg05
Rope3_Seg07 Rope3_Seg06
Rope3_Seg08 Rope3_Seg07
Rope3_Seg09 Rope3_Seg08
R_rear_hand01 Rope3_Seg09
R_rear_hand02 Rope3_Seg09
R_rear_hand03 Rope3_Seg09
Rope4_Seg01 null_rope04_connect
Rope4_Seg02 Rope4_Seg01
Rope4_Seg03 Rope4_Seg02
Rope4_Seg04 Rope4_Seg03
Rope4_Seg05 Rope4_Seg04
Rope4_Seg06 Rope4_Seg05
Rope4_Seg07 Rope4_Seg06
Rope4_Seg08 Rope4_Seg07
Rope4_Seg09 Rope4_Seg08
L_rear_hand01 Rope4_Seg09
L_rear_hand02 Rope4_Seg09
L_rear_hand03 Rope4_Seg09
[BasePosition]
#SegmentName Tx, Ty, Tz, Rx, Ry, Rz, BoneLength
MASTER 0.000000 0.000000 0.000000 -90.000000 0.000000 0.000000 10.000000 
root 0.000000 0.000000 0.000000 0.000000 0.000000 0.000000 10.000000 
chest 0.000000 0.000000 0.000000 0.000000 0.000000 0.000000 10.000000 
L_mid_tent01 0.000000 0.000000 0.000000 0.000000 0.000000 0.000000 10.000000 
R_mid_tent01 0.000000 0.000000 0.000000 0.000000 0.000000 0.000000 10.000000 
spine01 0.000000 0.000000 0.000000 0.000000 0.000000 0.000000 10.000000 
Bip01_Neck 0.000000 0.000000 0.000000 0.000000 0.000000 0.000000 10.000000 
L_humerus 0.000000 0.000000 0.000000 0.000000 0.000000 0.000000 10.000000 
R_humerus 0.000000 0.000000 0.000000 0.000000 0.000000 0.000000 10.000000 
weapon_bone 0.000000 0.000000 0.000000 0.000000 0.000000 0.000000 10.000000 
Bip01_Head 0.000000 0.000000 0.000000 0.000000 0.000000 0.000000 10.000000 
eye_left_bone 0.000000 0.000000 0.000000 0.000000 0.000000 0.000000 10.000000 
eye_right_bone 0.000000 0.000000 0.000000 0.000000 0.000000 0.000000 10.000000 
L_forearm 0.000000 0.000000 0.000000 0.000000 0.000000 0.000000 10.000000 
L_front_hand 0.000000 0.000000 0.000000 0.000000 0.000000 0.000000 10.000000 
L_weapon_bone 0.000000 0.000000 0.000000 0.000000 0.000000 0.000000 10.000000 
L_front_hand01_01 0.000000 0.000000 0.000000 0.000000 0.000000 0.000000 10.000000 
L_front_hand02_01 0.000000 0.000000 0.000000 0.000000 0.000000 0.000000 10.000000 
L_front_hand03_01 0.000000 0.000000 0.000000 0.000000 0.000000 0.000000 10.000000 
L_front_hand01_02 0.000000 0.000000 0.000000 0.000000 0.000000 0.000000 10.000000 
L_front_hand02_02 0.000000 0.000000 0.000000 0.000000 0.000000 0.000000 10.000000 
L_front_hand03_02 0.000000 0.000000 0.000000 0.000000 0.000000 0.000000 10.000000 
R_forearm 0.000000 0.000000 0.000000 0.000000 0.000000 0.000000 10.000000 
R_front_hand 0.000000 0.000000 0.000000 0.000000 0.000000 0.000000 10.000000 
R_weapon_bone 0.000000 0.000000 0.000000 0.000000 0.000000 0.000000 10.000000 
R_front_hand01_01 0.000000 0.000000 0.000000 0.000000 0.000000 0.000000 10.000000 
R_front_hand02_01 0.000000 0.000000 0.000000 0.000000 0.000000 0.000000 10.000000 
R_front_hand03_01 0.000000 0.000000 0.000000 0.000000 0.000000 0.000000 10.000000 
R_front_hand01_02 0.000000 0.000000 0.000000 0.000000 0.000000 0.000000 10.000000 
R_front_hand02_02 0.000000 0.000000 0.000000 0.000000 0.000000 0.000000 10.000000 
R_front_hand03_02 0.000000 0.000000 0.000000 0.000000 0.000000 0.000000 10.000000 
null_rope01_connect 0.000000 0.000000 0.000000 0.000000 0.000000 0.000000 10.000000 
Rope1_Seg01 0.000000 0.000000 0.000000 0.000000 0.000000 0.000000 10.000000 
Rope1_Seg02 0.000000 0.000000 0.000000 0.000000 0.000000 0.000000 10.000000 
Rope1_Seg03 0.000000 0.000000 0.000000 0.000000 0.000000 0.000000 10.000000 
Rope1_Seg04 0.000000 0.000000 0.000000 0.000000 0.000000 0.000000 10.000000 
Rope1_Seg05 0.000000 0.000000 0.000000 0.000000 0.000000 0.000000 10.000000 
Rope1_Seg06 0.000000 0.000000 0.000000 0.000000 0.000000 0.000000 10.000000 
Rope1_Seg07 0.000000 0.000000 0.000000 0.000000 0.000000 0.000000 10.000000 
Rope1_Seg09 0.000000 0.000000 0.000000 0.000000 0.000000 0.000000 10.000000 
L_mid_hand01 0.000000 0.000000 0.000000 0.000000 0.000000 0.000000 10.000000 
L_mid_hand02 0.000000 0.000000 0.000000 0.000000 0.000000 0.000000 10.000000 
L_mid_hand03 0.000000 0.000000 0.000000 0.000000 0.000000 0.000000 10.000000 
null_rope02_connect 0.000000 0.000000 0.000000 0.000000 0.000000 0.000000 10.000000 
Rope2_Seg01 0.000000 0.000000 0.000000 0.000000 0.000000 0.000000 10.000000 
Rope2_Seg02 0.000000 0.000000 0.000000 0.000000 0.000000 0.000000 10.000000 
Rope2_Seg03 0.000000 0.000000 0.000000 0.000000 0.000000 0.000000 10.000000 
Rope2_Seg04 0.000000 0.000000 0.000000 0.000000 0.000000 0.000000 10.000000 
Rope2_Seg05 0.000000 0.000000 0.000000 0.000000 0.000000 0.000000 10.000000 
Rope2_Seg06 0.000000 0.000000 0.000000 0.000000 0.000000 0.000000 10.000000 
Rope2_Seg07 0.000000 0.000000 0.000000 0.000000 0.000000 0.000000 10.000000 
Rope2_Seg09 0.000000 0.000000 0.000000 0.000000 0.000000 0.000000 10.000000 
R_mid_hand01 0.000000 0.000000 0.000000 0.000000 0.000000 0.000000 10.000000 
R_mid_hand02 0.000000 0.000000 0.000000 0.000000 0.000000 0.000000 10.000000 
R_mid_hand03 0.000000 0.000000 0.000000 0.000000 0.000000 0.000000 10.000000 
spine02 0.000000 0.000000 0.000000 0.000000 0.000000 0.000000 10.000000 
spine03 0.000000 0.000000 0.000000 0.000000 0.000000 0.000000 10.000000 
pelvis 0.000000 0.000000 0.000000 0.000000 0.000000 0.000000 10.000000 
null_rope03_connect 0.000000 0.000000 0.000000 0.000000 0.000000 0.000000 10.000000 
null_rope04_connect 0.000000 0.000000 0.000000 0.000000 0.000000 0.000000 10.000000 
Rope3_Seg01 0.000000 0.000000 0.000000 0.000000 0.000000 0.000000 10.000000 
Rope3_Seg02 0.000000 0.000000 0.000000 0.000000 0.000000 0.000000 10.000000 
Rope3_Seg03 0.000000 0.000000 0.000000 0.000000 0.000000 0.000000 10.000000 
Rope3_Seg04 0.000000 0.000000 0.000000 0.000000 0.000000 0.000000 10.000000 
Rope3_Seg05 0.000000 0.000000 0.000000 0.000000 0.000000 0.000000 10.000000 
Rope3_Seg06 0.000000 0.000000 0.000000 0.000000 0.000000 0.000000 10.000000 
Rope3_Seg07 0.000000 0.000000 0.000000 0.000000 0.000000 0.000000 10.000000 
Rope3_Seg08 0.000000 0.000000 0.000000 0.000000 0.000000 0.000000 10.000000 
Rope3_Seg09 0.000000 0.000000 0.000000 0.000000 0.000000 0.000000 10.000000 
R_rear_hand01 0.000000 0.000000 0.000000 0.000000 0.000000 0.000000 10.000000 
R_rear_hand02 0.000000 0.000000 0.000000 0.000000 0.000000 0.000000 10.000000 
R_rear_hand03 0.000000 0.000000 0.000000 0.000000 0.000000 0.000000 10.000000 
Rope4_Seg01 0.000000 0.000000 0.000000 0.000000 0.000000 0.000000 10.000000 
Rope4_Seg02 0.000000 0.000000 0.000000 0.000000 0.000000 0.000000 10.000000 
Rope4_Seg03 0.000000 0.000000 0.000000 0.000000 0.000000 0.000000 10.000000 
Rope4_Seg04 0.000000 0.000000 0.000000 0.000000 0.000000 0.000000 10.000000 
Rope4_Seg05 0.000000 0.000000 0.000000 0.000000 0.000000 0.000000 10.000000 
Rope4_Seg06 0.000000 0.000000 0.000000 0.000000 0.000000 0.000000 10.000000 
Rope4_Seg07 0.000000 0.000000 0.000000 0.000000 0.000000 0.000000 10.000000 
Rope4_Seg08 0.000000 0.000000 0.000000 0.000000 0.000000 0.000000 10.000000 
Rope4_Seg09 0.000000 0.000000 0.000000 0.000000 0.000000 0.000000 10.000000 
L_rear_hand01 0.000000 0.000000 0.000000 0.000000 0.000000 0.000000 10.000000 
L_rear_hand02 0.000000 0.000000 0.000000 0.000000 0.000000 0.000000 10.000000 
L_rear_hand03 0.000000 0.000000 0.000000 0.000000 0.000000 0.000000 10.000000 
#Beginning of Data. Separated by tabs
#Fr	Tx	Ty	Tz	Rx	Ry	Rz	SF
[MASTER]
15 1569.947144 3152.956299 -1611.573975 0.001660 0.001660 0.001660 3873.375488
16 1491.680908 3319.779297 -1610.467529 0.001660 0.001660 0.001660 3979.906250
[root]
15 -16.502228 -62.821960 1500.000000 -90.139610 -27.424177 -89.983131 1501.405640
16 -16.501923 -49.232788 1494.625244 -90.144203 -25.887295 -89.930031 1495.526978
[chest]
15 -84.512650 -34.090519 0.000000 -15.128545 0.601425 171.824280 91.129311
16 -84.512650 -34.090519 0.000000 -11.539125 2.175805 171.069504 91.129311
[L_mid_tent01]
15 27.298929 22.179155 -249.918823 -1.379268 36.511192 66.497536 252.381775
16 27.298920 22.179146 -249.918823 -7.642951 33.127277 54.051994 252.381775
[R_mid_tent01]
15 23.228794 24.509907 226.238495 173.725189 -30.857771 58.860596 228.744751
16 23.228794 24.509907 226.238495 178.742783 -29.277302 51.308167 228.744751
[spine01]
15 -0.361383 -0.195265 0.000000 -0.000001 -0.000007 22.052340 0.410763
16 -0.361383 -0.195265 0.000000 -0.000001 -0.000007 22.052340 0.410763
[Bip01_Neck]
15 165.484543 71.581718 0.000119 176.643677 -1.657967 43.431911 180.302734
16 165.484543 71.581718 0.000119 176.643677 -1.657967 43.431911 180.302734
[L_humerus]
15 -13.983130 -135.272980 -120.471481 156.317398 70.210068 -112.010254 181.680161
16 -13.983130 -135.272980 -120.471481 154.066544 74.067841 -114.437523 181.680161
[R_humerus]
15 -13.983309 -135.273102 125.287651 -172.382263 -66.903831 -92.553993 184.909012
16 -13.983309 -135.273102 125.287651 -177.262985 -70.524796 -87.744934 184.909012
[weapon_bone]
15 235.964890 -300.705902 0.000000 0.000000 -89.951546 -128.212341 382.234833
16 235.964890 -300.705902 0.000000 0.000000 -89.951546 -128.212341 382.234833
[Bip01_Head]
15 213.442169 185.720001 11.717758 15.597229 5.484535 -43.847027 283.172729
16 213.442581 185.719086 11.729583 13.006474 4.828406 -43.860271 283.172913
[eye_left_bone]
15 -24.626970 125.451866 -64.772606 0.000000 -90.000000 -99.840431 143.318359
16 -24.626970 125.451866 -64.772606 0.000000 -90.000000 -99.840431 143.318359
[eye_right_bone]
15 -24.626970 125.451866 64.327362 0.000000 -89.965736 80.156380 143.117676
16 -24.626970 125.451866 64.327362 0.000000 -89.965736 80.156380 143.117676
[L_forearm]
15 322.776093 0.000000 -0.000119 0.000366 -0.002319 -107.929962 322.776093
16 322.776093 0.000000 -0.000119 0.000372 -0.002318 -108.252396 322.776093
[L_front_hand]
15 241.149185 -0.042021 -3.300071 -105.490540 -1.835781 -27.423635 241.171753
16 241.149185 -0.042021 -3.300071 -105.490540 -1.835781 -27.423635 241.171753
[L_weapon_bone]
15 156.183838 0.000000 0.000000 0.000014 0.000007 0.000001 156.183838
16 156.183838 0.000000 0.000000 0.000014 0.000007 0.000001 156.183838
[L_front_hand01_01]
15 86.095154 20.947098 -0.655860 -0.366594 -0.477154 75.385574 88.609184
16 86.095154 20.947098 -0.655860 -0.366594 -0.477154 75.385574 88.609184
[L_front_hand02_01]
15 86.935165 -11.437475 24.513514 154.399796 -59.883835 -61.369587 91.046425
16 86.935165 -11.437475 24.513514 154.399796 -59.883835 -61.369587 91.046425
[L_front_hand03_01]
15 86.637497 -14.123976 -20.424902 -153.913849 58.118122 -62.702866 90.126129
16 86.637497 -14.123976 -20.424902 -153.913849 58.118122 -62.702866 90.126129
[L_front_hand01_02]
15 71.020905 -0.000179 0.000030 0.000334 -0.002323 -106.379684 71.020905
16 71.020905 -0.000179 0.000030 0.000334 -0.002323 -106.379684 71.020905
[L_front_hand02_02]
15 71.020927 -0.000119 0.000060 0.000334 -0.002323 -106.379684 71.020927
16 71.020927 -0.000119 0.000060 0.000334 -0.002323 -106.379684 71.020927
[L_front_hand03_02]
15 71.020905 -0.000060 0.000060 0.000334 -0.002323 -106.379684 71.020905
16 71.020905 -0.000060 0.000060 0.000334 -0.002323 -106.379684 71.020905
[R_forearm]
15 322.776428 -0.000060 0.000030 0.203949 0.055581 -106.559853 322.776428
16 322.776428 -0.000060 0.000030 0.203788 0.056160 -106.885155 322.776428
[R_front_hand]
15 238.847015 -0.006795 2.210259 -2.635298 -10.645461 -26.312506 238.857239
16 238.847015 -0.006795 2.210259 -2.635298 -10.645461 -26.312506 238.857239
[R_weapon_bone]
15 155.664093 0.002503 -0.000030 0.003487 0.001180 -90.988930 155.664078
16 155.664093 0.002503 -0.000030 0.003487 0.001180 -90.988930 155.664078
[R_front_hand01_01]
15 87.624611 14.231146 22.918642 -154.633499 -59.950619 61.746044 91.683487
16 87.624611 14.231146 22.918642 -154.633514 -59.950634 61.746063 91.683487
[R_front_hand02_01]
15 89.356956 14.367283 -19.491137 154.602661 58.302849 63.744389 92.579636
16 89.356956 14.367283 -19.491137 154.602661 58.302849 63.744389 92.579636
[R_front_hand03_01]
15 87.286232 -22.307278 -0.143439 0.162155 -0.423168 -75.767921 90.091743
16 87.286232 -22.307278 -0.143439 0.162155 -0.423168 -75.767921 90.091743
[R_front_hand01_02]
15 71.020905 0.000060 0.000119 0.002323 -0.000334 106.381714 71.020905
16 71.020905 0.000060 0.000119 0.002323 -0.000334 106.381714 71.020905
[R_front_hand02_02]
15 71.020844 -0.000030 -0.000119 0.002323 -0.000334 106.381714 71.020836
16 71.020844 -0.000030 -0.000119 0.002323 -0.000334 106.381714 71.020836
[R_front_hand03_02]
15 71.020905 0.000000 0.000030 0.002323 -0.000334 106.381714 71.020905
16 71.020905 0.000000 0.000030 0.002323 -0.000334 106.381714 71.020905
[null_rope01_connect]
15 328.732483 0.000000 -0.000238 -131.484207 -53.348118 -178.021057 328.732483
16 328.732483 0.000000 -0.000238 -132.106445 -56.016983 -168.307587 328.732483
[Rope1_Seg01]
15 -0.000033 -0.000235 0.000000 19.462315 12.952189 -141.092224 0.000237
16 -0.000034 -0.000249 0.000000 24.988728 14.325434 -137.015366 0.000251
[Rope1_Seg02]
15 139.999863 -0.000179 0.000000 4.858234 -4.293128 10.171706 139.999863
16 139.999863 -0.000179 0.000000 8.359825 -5.199255 13.874942 139.999863
[Rope1_Seg03]
15 139.999924 0.000060 -0.000060 9.301932 -2.818010 9.662037 139.999924
16 139.999924 0.000060 -0.000060 -0.074478 -8.980302 10.519549 139.999924
[Rope1_Seg04]
15 139.999924 -0.000060 -0.000119 16.394213 -1.284611 8.980976 139.999924
16 139.999924 -0.000060 -0.000119 34.767952 3.934371 7.942163 139.999924
[Rope1_Seg05]
15 139.999832 0.000119 -0.000060 7.381920 -0.413652 3.286050 139.999832
16 139.999832 0.000119 -0.000060 16.968227 18.541449 -5.609039 139.999832
[Rope1_Seg06]
15 139.999954 0.000119 -0.000060 2.784693 -0.175561 1.184730 139.999954
16 139.999954 0.000119 -0.000060 3.029480 8.789104 -5.513863 139.999954
[Rope1_Seg07]
15 139.999985 0.000060 0.000000 3.371294 0.115883 0.994646 139.999985
16 139.999985 0.000060 0.000000 1.371765 4.618573 -2.858916 139.999985
[Rope1_Seg09]
15 121.602913 0.000119 -0.000089 -89.793175 -1.359789 0.847147 121.602913
16 121.602913 0.000119 -0.000089 -89.793175 -1.359789 0.847147 121.602913
[L_mid_hand01]
15 103.859421 1.038730 8.195221 130.544373 -67.584534 -38.866943 104.187431
16 103.859421 1.038730 8.195221 130.544373 -67.584534 -38.866943 104.187431
[L_mid_hand02]
15 105.572853 -4.139662 -10.864139 -168.923172 43.409309 -73.498886 106.211075
16 105.572853 -4.139662 -10.864139 -168.923172 43.409309 -73.498886 106.211075
[L_mid_hand03]
15 104.641464 17.579376 -3.913581 -6.012627 17.808178 74.893677 106.179977
16 104.641464 17.579376 -3.913581 -6.012627 17.808174 74.893669 106.179977
[null_rope02_connect]
15 328.732849 0.000179 -0.000119 -109.170670 58.658859 10.562257 328.732849
16 328.732849 0.000179 -0.000119 -112.643051 60.747730 2.476943 328.732849
[Rope2_Seg01]
15 0.000000 -0.000175 -0.000020 3.185127 -1.311122 -49.605652 0.000176
16 0.000000 -0.000201 -0.000016 0.869800 -1.791833 -50.265205 0.000201
[Rope2_Seg02]
15 139.999741 -0.000060 -0.000119 2.856248 0.894604 0.696814 139.999756
16 139.999741 -0.000060 -0.000119 1.427268 0.377994 0.362490 139.999756
[Rope2_Seg03]
15 140.000107 0.000030 0.000000 2.657077 0.642265 0.748733 140.000107
16 140.000107 0.000030 0.000000 2.890902 0.879188 0.711540 140.000107
[Rope2_Seg04]
15 139.999802 0.000000 -0.000060 8.837313 -0.990576 3.527118 139.999802
16 139.999802 0.000000 -0.000060 5.233319 1.848339 1.304232 139.999802
[Rope2_Seg05]
15 139.999985 -0.000060 0.000119 -2.333723 1.234102 -1.428459 139.999985
16 139.999985 -0.000060 0.000119 -6.974943 -2.619322 -1.454438 139.999985
[Rope2_Seg06]
15 139.999893 -0.000030 -0.000119 -11.009100 3.380362 -7.038524 139.999893
16 139.999893 -0.000030 -0.000119 -14.869414 -4.198509 -3.084195 139.999893
[Rope2_Seg07]
15 139.999893 0.000060 -0.000060 -6.198470 4.155679 -5.821193 139.999893
16 139.999893 0.000060 -0.000060 -8.821670 -1.683168 -2.096079 139.999893
[Rope2_Seg09]
15 121.338966 0.000089 -0.000060 33.793236 -1.359788 -0.847141 121.338966
16 121.338966 0.000089 -0.000060 33.793236 -1.359788 -0.847141 121.338966
[R_mid_hand01]
15 104.680779 11.144459 -10.335981 -16.212063 45.237240 70.462845 105.778534
16 104.680779 11.144459 -10.335981 -16.212063 45.237247 70.462852 105.778534
[R_mid_hand02]
15 104.070427 2.443552 8.231699 49.067368 -67.749771 39.286453 104.424065
16 104.070427 2.443552 8.231699 49.067371 -67.749794 39.286461 104.424065
[R_mid_hand03]
15 106.028137 -11.221827 -5.996406 -177.101105 15.551026 -76.585571 106.788818
16 106.028137 -11.221827 -5.996406 -177.101105 15.551026 -76.585571 106.788818
[spine02]
15 129.756927 0.001550 0.000119 0.206305 -4.054893 -10.757153 129.756927
16 129.756927 0.001550 0.000119 0.238998 -4.054075 -11.212393 129.756927
[spine03]
15 78.614159 0.081480 -4.899109 1.804869 3.877703 15.131837 78.766708
16 78.614166 0.081517 -4.899115 1.824031 3.868510 15.421837 78.766708
[pelvis]
15 169.435242 0.051022 0.000000 -0.051278 -0.182091 11.385669 169.435257
16 169.435242 0.051022 0.000000 -0.052175 -0.181839 11.950074 169.435257
[null_rope03_connect]
15 -1.257226 -2.466202 137.391083 17.562197 -89.158134 62.025536 137.418976
16 -1.257226 -2.466202 137.391083 19.279516 -89.111099 58.382942 137.418976
[null_rope04_connect]
15 -1.259640 -2.480268 -137.844437 17.562197 -89.158134 62.025536 137.872513
16 -1.259640 -2.480268 -137.844437 19.279516 -89.111099 58.382942 137.872513
[Rope3_Seg01]
15 0.000000 0.000000 0.000000 15.204215 -16.352804 -69.053612 0.000000
16 0.000000 0.000000 0.000000 16.554035 -4.574740 -71.962936 0.000000
[Rope3_Seg02]
15 139.999924 -0.000119 0.000060 1.233472 9.546173 4.637231 139.999924
16 139.999924 -0.000119 0.000060 0.561920 5.404007 3.682823 139.999924
[Rope3_Seg03]
15 139.999924 -0.000119 0.000119 2.471562 10.386148 3.882823 139.999924
16 139.999924 -0.000119 0.000119 1.121070 6.465114 3.235821 139.999924
[Rope3_Seg04]
15 139.999924 0.000119 0.000000 3.703156 10.328025 2.860612 139.999924
16 139.999924 0.000119 0.000000 2.339950 8.677248 2.764080 139.999924
[Rope3_Seg05]
15 139.999924 -0.000238 0.000060 -3.010659 -5.942516 1.540181 139.999924
16 139.999924 -0.000238 0.000060 -2.514375 -5.662933 2.399578 139.999924
[Rope3_Seg06]
15 139.999893 -0.000119 -0.000060 -4.379843 -13.307945 0.373343 139.999893
16 139.999893 -0.000119 -0.000060 -3.692833 -12.883431 1.504336 139.999893
[Rope3_Seg07]
15 139.999771 0.000060 -0.000119 -1.142799 -6.282772 0.004944 139.999771
16 139.999771 0.000060 -0.000119 -0.981133 -6.320997 0.754273 139.999771
[Rope3_Seg08]
15 139.999985 -0.000060 0.000000 -0.245728 -3.564761 -0.000588 139.999985
16 139.999985 -0.000060 0.000000 -0.186272 -3.727339 0.453069 139.999985
[Rope3_Seg09]
15 90.185997 -0.000179 -0.000060 89.793228 -1.359877 -0.847183 90.185997
16 90.185997 -0.000179 -0.000060 89.793228 -1.359877 -0.847183 90.185997
[R_rear_hand01]
15 103.366196 -6.073594 -10.757982 172.856537 -15.220671 -75.434441 104.101845
16 103.366196 -6.073594 -10.757982 172.856537 -15.220671 -75.434441 104.101845
[R_rear_hand02]
15 100.509819 12.039542 -7.992327 -12.874829 36.868488 72.167213 101.543350
16 100.509819 12.039542 -7.992327 -12.874829 36.868488 72.167213 101.543350
[R_rear_hand03]
15 101.539970 5.215704 5.435467 71.484581 -71.816628 21.513813 101.819031
16 101.539970 5.215704 5.435467 71.484581 -71.816628 21.513813 101.819031
[Rope4_Seg01]
15 -0.000133 -0.000010 -0.000069 -103.412689 -17.371771 -86.146439 0.000150
16 -0.000137 -0.000008 -0.000069 -100.540405 -9.933640 -89.850945 0.000153
[Rope4_Seg02]
15 139.999985 0.000060 0.000119 4.357770 -12.839018 5.849495 139.999985
16 139.999985 0.000060 0.000119 2.808386 -12.211828 4.334531 139.999985
[Rope4_Seg03]
15 139.999924 0.000000 -0.000238 6.997234 -10.763291 8.653527 139.999924
16 139.999924 0.000000 -0.000238 5.142024 -11.636907 6.448399 139.999924
[Rope4_Seg04]
15 139.999985 0.000000 0.000119 3.591799 -5.618865 2.857583 139.999985
16 139.999985 0.000000 0.000119 4.210646 -7.155305 3.830062 139.999985
[Rope4_Seg05]
15 139.999802 -0.000060 -0.000119 -5.312659 -0.774665 -7.419089 139.999802
16 139.999802 -0.000060 -0.000119 -4.378692 0.758456 -6.127887 139.999802
[Rope4_Seg06]
15 139.999924 0.000000 0.000060 -3.802700 0.054954 -4.657902 139.999924
16 139.999924 0.000000 0.000060 -4.094282 1.676693 -5.108270 139.999924
[Rope4_Seg07]
15 139.999802 0.000000 0.000000 -1.645698 -0.257019 -2.166161 139.999802
16 139.999802 0.000000 0.000000 -1.608440 0.370590 -2.264101 139.999802
[Rope4_Seg08]
15 139.999924 0.000000 0.000119 -2.633326 -0.123963 -1.375737 139.999924
16 139.999924 0.000000 0.000119 -2.598819 0.280358 -1.454201 139.999924
[Rope4_Seg09]
15 90.185791 0.000060 0.000060 -135.617828 2.228885 0.850567 90.185791
16 90.185791 0.000060 0.000060 -135.617828 2.228885 0.850567 90.185791
[L_rear_hand01]
15 101.696655 -8.392275 -7.654577 -12.874829 -36.868488 107.832764 102.329041
16 101.696655 -8.392275 -7.654577 -12.874829 -36.868488 107.832764 102.329041
[L_rear_hand02]
15 102.726799 -1.568258 5.773216 71.484581 71.816628 158.486160 102.900848
16 102.726799 -1.568258 5.773216 71.484581 71.816628 158.486160 102.900848
[L_rear_hand03]
15 104.552910 9.721220 -10.420293 -177.714203 -24.565960 -106.089035 105.519653
16 104.552910 9.721220 -10.420293 -177.714203 -24.565960 -106.089035 105.519653
